<?xml version="1.0" encoding="utf-8"?>
<!-- Generator: Adobe Illustrator 16.0.0, SVG Export Plug-In . SVG Version: 6.00 Build 0)  -->
<!DOCTYPE svg PUBLIC "-//W3C//DTD SVG 1.1//EN" "http://www.w3.org/Graphics/SVG/1.1/DTD/svg11.dtd">
<svg version="1.1" id="Layer_1" xmlns="http://www.w3.org/2000/svg" xmlns:xlink="http://www.w3.org/1999/xlink" x="0px" y="0px"
	 width="864px" height="72px" viewBox="0 0 864 72" enable-background="new 0 0 864 72" xml:space="preserve">
<g>
	<g>
		<line fill="none" stroke="#231F20" stroke-width="4" stroke-miterlimit="10" x1="0" y1="36" x2="844.688" y2="36"/>
		<g>
			<path fill="#231F20" d="M864,36c-9.088,3.372-20.362,9.125-27.352,15.219L842.153,36l-5.505-15.216
				C843.638,26.878,854.912,32.631,864,36z"/>
		</g>
	</g>
</g>
<line fill="none" stroke="#231F20" stroke-width="4" stroke-miterlimit="10" x1="36" y1="36" x2="36" y2="28.8"/>
<line fill="none" stroke="#231F20" stroke-width="4" stroke-miterlimit="10" x1="144" y1="43.2" x2="144" y2="36"/>
<line fill="none" stroke="#231F20" stroke-width="4" stroke-miterlimit="10" x1="792" y1="43.2" x2="792" y2="36"/>
<line fill="none" stroke="#231F20" stroke-width="4" stroke-miterlimit="10" x1="684" y1="36" x2="684" y2="28.8"/>
<line fill="none" stroke="#231F20" stroke-width="4" stroke-miterlimit="10" x1="576" y1="43.2" x2="576" y2="36"/>
<line fill="none" stroke="#231F20" stroke-width="4" stroke-miterlimit="10" x1="468" y1="36" x2="468" y2="28.8"/>
<line fill="none" stroke="#231F20" stroke-width="4" stroke-miterlimit="10" x1="360" y1="43.2" x2="360" y2="36"/>
<line fill="none" stroke="#231F20" stroke-width="4" stroke-miterlimit="10" x1="252" y1="36" x2="252" y2="28.8"/>
<text transform="matrix(1 0 0 1 23.3423 67.0586)" font-family="'Helvetica'" font-size="20">10</text>
<text transform="matrix(0.583 0 0 0.583 45.5884 60.3984)" font-family="'Helvetica'" font-size="20">-15</text>
<text transform="matrix(1 0 0 1 62.4409 67.0586)" font-family="'Helvetica'" font-size="20"> m</text>
<text transform="matrix(1 0 0 1 676.5264 67.0586)" font-family="'Helvetica'" font-size="20">10</text>
<text transform="matrix(0.583 0 0 0.583 698.7725 60.3984)" font-family="'Helvetica'" font-size="20">3</text>
<text transform="matrix(1 0 0 1 705.2578 67.0586)" font-family="'Helvetica'" font-size="20"> m</text>
<text transform="matrix(1 0 0 1 568.5264 23.8594)" font-family="'Helvetica'" font-size="20">10</text>
<text transform="matrix(0.583 0 0 0.583 590.7725 17.1992)" font-family="'Helvetica'" font-size="20">0</text>
<text transform="matrix(1 0 0 1 597.2578 23.8594)" font-family="'Helvetica'" font-size="20"> m</text>
<text transform="matrix(1 0 0 1 458.585 67.0586)" font-family="'Helvetica'" font-size="20">10</text>
<text transform="matrix(0.583 0 0 0.583 480.8311 60.3984)" font-family="'Helvetica'" font-size="20">-3</text>
<text transform="matrix(1 0 0 1 491.1992 67.0586)" font-family="'Helvetica'" font-size="20"> m</text>
<text transform="matrix(1 0 0 1 350.5845 23.8594)" font-family="'Helvetica'" font-size="20">10</text>
<text transform="matrix(0.583 0 0 0.583 372.8306 17.1992)" font-family="'Helvetica'" font-size="20">-6</text>
<text transform="matrix(1 0 0 1 383.1982 23.8594)" font-family="'Helvetica'" font-size="20"> m</text>
<text transform="matrix(1 0 0 1 242.5845 67.0586)" font-family="'Helvetica'" font-size="20">10</text>
<text transform="matrix(0.583 0 0 0.583 264.8306 60.3984)" font-family="'Helvetica'" font-size="20">-9</text>
<text transform="matrix(1 0 0 1 275.1982 67.0586)" font-family="'Helvetica'" font-size="20"> m</text>
<text transform="matrix(1 0 0 1 131.3423 23.8594)" font-family="'Helvetica'" font-size="20">10</text>
<text transform="matrix(0.583 0 0 0.583 153.5884 17.1992)" font-family="'Helvetica'" font-size="20">-12</text>
<text transform="matrix(1 0 0 1 170.4409 23.8594)" font-family="'Helvetica'" font-size="20"> m</text>
<text transform="matrix(1 0 0 1 784.5264 23.8594)" font-family="'Helvetica'" font-size="20">10</text>
<text transform="matrix(0.583 0 0 0.583 806.7725 17.1992)" font-family="'Helvetica'" font-size="20">6</text>
<text transform="matrix(1 0 0 1 813.2578 23.8594)" font-family="'Helvetica'" font-size="20"> m</text>
</svg>
