<?xml version="1.0" encoding="UTF-8" standalone="no"?>
<!-- Created with Inkscape (http://www.inkscape.org/) -->
<!-- <a title="By Marekich (Own work (vector version of PNG image)) [CC BY-SA 3.0 (http://creativecommons.org/licenses/by-sa/3.0)], via Wikimedia Commons" href="https://commons.wikimedia.org/wiki/File%3ANucleus_drawing.svg"><img width="256" alt="Nucleus drawing" src="https://upload.wikimedia.org/wikipedia/commons/thumb/f/f0/Nucleus_drawing.svg/256px-Nucleus_drawing.svg.png"/></a> -->
<svg xmlns:rdf="http://www.w3.org/1999/02/22-rdf-syntax-ns#" xmlns="http://www.w3.org/2000/svg" height="470" width="470" version="1.1" xmlns:cc="http://creativecommons.org/ns#" xmlns:xlink="http://www.w3.org/1999/xlink" xmlns:dc="http://purl.org/dc/elements/1.1/">
 <defs>
  <linearGradient id="e">
   <stop stop-opacity=".71562" offset="0"/>
   <stop stop-color="#6c6c6c" stop-opacity="0" offset="1"/>
  </linearGradient>
  <linearGradient id="f">
   <stop offset="0"/>
   <stop stop-color="#6c6c6c" stop-opacity="0" offset="1"/>
  </linearGradient>
  <linearGradient id="g">
   <stop stop-color="#7291f2" offset="0"/>
   <stop stop-color="#004aef" offset="1"/>
  </linearGradient>
  <linearGradient id="h">
   <stop stop-color="#ff9191" offset="0"/>
   <stop stop-color="#f00" offset="1"/>
  </linearGradient>
  <radialGradient id="d" xlink:href="#h" gradientUnits="userSpaceOnUse" cy="130.45" cx="146.94" gradientTransform="matrix(.32586 .89069 -.93912 .34358 217.56 -66.34)" r="70"/>
  <radialGradient id="b" xlink:href="#g" gradientUnits="userSpaceOnUse" cy="127.21" cx="151.6" gradientTransform="matrix(.32586 .89069 -.93912 .34358 217.56 -66.34)" r="70"/>
  <radialGradient id="a" xlink:href="#f" gradientUnits="userSpaceOnUse" cy="119.41" cx="230.33" gradientTransform="matrix(.49148 -1.3282 1.4282 .52849 -67.71 428.52)" r="70"/>
  <radialGradient id="c" xlink:href="#e" gradientUnits="userSpaceOnUse" cy="119.41" cx="230.33" gradientTransform="matrix(.49148 -1.3282 1.4282 .52849 -67.71 428.52)" r="70"/>
 </defs>
 <metadata>
  <rdf:RDF>
   <cc:Work rdf:about="">
    <dc:format>image/svg+xml</dc:format>
    <dc:type rdf:resource="http://purl.org/dc/dcmitype/StillImage"/>
    <cc:license rdf:resource=""/>
    <dc:title/>
   </cc:Work>
  </rdf:RDF>
 </metadata>
 <g transform="translate(-1.8571 -9.7143)">
  <path d="m247.14 143.57c0 38.66-31.34 70-70 70s-70-31.34-70-70 31.34-70 70-70c38.66 0.001 70 31.34 70 70z" transform="matrix(.93942 0 0 .93942 15.445 -11.16)" fill="url(#d)"/>
  <path d="m247.14 143.57c0 38.66-31.34 70-70 70s-70-31.34-70-70 31.34-70 70-70c38.66 0.001 70 31.34 70 70z" transform="matrix(.93942 0 0 .93942 15.445 -11.16)" fill="url(#c)"/>
  <path d="m247.14 143.57c0 38.66-31.34 70-70 70s-70-31.34-70-70 31.34-70 70-70c38.66 0.001 70 31.34 70 70z" transform="matrix(.93942 0 0 .93942 -2.5552 82.84)" fill="url(#b)"/>
  <path d="m247.14 143.57c0 38.66-31.34 70-70 70s-70-31.34-70-70 31.34-70 70-70c38.66 0.001 70 31.34 70 70z" transform="matrix(.93942 0 0 .93942 -2.5552 82.84)" fill="url(#a)"/>
  <path d="m247.14 143.57c0 38.66-31.34 70-70 70s-70-31.34-70-70 31.34-70 70-70c38.66 0.001 70 31.34 70 70z" transform="matrix(.93942 0 0 .93942 181.44 20.84)" fill="url(#d)"/>
  <path d="m247.14 143.57c0 38.66-31.34 70-70 70s-70-31.34-70-70 31.34-70 70-70c38.66 0.001 70 31.34 70 70z" transform="matrix(.93942 0 0 .93942 181.44 20.84)" fill="url(#c)"/>
  <path d="m247.14 143.57c0 38.66-31.34 70-70 70s-70-31.34-70-70 31.34-70 70-70c38.66 0.001 70 31.34 70 70z" transform="matrix(.93942 0 0 .93942 83.445 -35.16)" fill="url(#b)"/>
  <path d="m247.14 143.57c0 38.66-31.34 70-70 70s-70-31.34-70-70 31.34-70 70-70c38.66 0.001 70 31.34 70 70z" transform="matrix(.93942 0 0 .93942 83.445 -35.16)" fill="url(#a)"/>
  <path d="m247.14 143.57c0 38.66-31.34 70-70 70s-70-31.34-70-70 31.34-70 70-70c38.66 0.001 70 31.34 70 70z" transform="matrix(.93942 0 0 .93942 123.44 156.84)" fill="url(#b)"/>
  <path d="m247.14 143.57c0 38.66-31.34 70-70 70s-70-31.34-70-70 31.34-70 70-70c38.66 0.001 70 31.34 70 70z" transform="matrix(.93942 0 0 .93942 123.44 156.84)" fill="url(#a)"/>
  <path d="m247.14 143.57c0 38.66-31.34 70-70 70s-70-31.34-70-70 31.34-70 70-70c38.66 0.001 70 31.34 70 70z" transform="matrix(.93942 0 0 .93942 201.44 160.84)" fill="url(#d)"/>
  <path d="m247.14 143.57c0 38.66-31.34 70-70 70s-70-31.34-70-70 31.34-70 70-70c38.66 0.001 70 31.34 70 70z" transform="matrix(.93942 0 0 .93942 201.44 160.84)" fill="url(#c)"/>
  <path d="m247.14 143.57c0 38.66-31.34 70-70 70s-70-31.34-70-70 31.34-70 70-70c38.66 0.001 70 31.34 70 70z" transform="matrix(.93942 0 0 .93942 217.44 88.84)" fill="url(#b)"/>
  <path d="m247.14 143.57c0 38.66-31.34 70-70 70s-70-31.34-70-70 31.34-70 70-70c38.66 0.001 70 31.34 70 70z" transform="matrix(.93942 0 0 .93942 217.44 88.84)" fill="url(#a)"/>
  <path d="m247.14 143.57c0 38.66-31.34 70-70 70s-70-31.34-70-70 31.34-70 70-70c38.66 0.001 70 31.34 70 70z" transform="matrix(.93942 0 0 .93942 151.44 218.84)" fill="url(#b)"/>
  <path d="m247.14 143.57c0 38.66-31.34 70-70 70s-70-31.34-70-70 31.34-70 70-70c38.66 0.001 70 31.34 70 70z" transform="matrix(.93942 0 0 .93942 151.44 218.84)" fill="url(#a)"/>
  <path d="m247.14 143.57c0 38.66-31.34 70-70 70s-70-31.34-70-70 31.34-70 70-70c38.66 0.001 70 31.34 70 70z" transform="matrix(.93942 0 0 .93942 49.445 254.84)" fill="url(#d)"/>
  <path d="m247.14 143.57c0 38.66-31.34 70-70 70s-70-31.34-70-70 31.34-70 70-70c38.66 0.001 70 31.34 70 70z" transform="matrix(.93942 0 0 .93942 49.445 254.84)" fill="url(#c)"/>
  <path d="m247.14 143.57c0 38.66-31.34 70-70 70s-70-31.34-70-70 31.34-70 70-70c38.66 0.001 70 31.34 70 70z" transform="matrix(.93942 0 0 .93942 -76.555 120.84)" fill="url(#d)"/>
  <path d="m247.14 143.57c0 38.66-31.34 70-70 70s-70-31.34-70-70 31.34-70 70-70c38.66 0.001 70 31.34 70 70z" transform="matrix(.93942 0 0 .93942 -76.555 120.84)" fill="url(#c)"/>
  <path d="m247.14 143.57c0 38.66-31.34 70-70 70s-70-31.34-70-70 31.34-70 70-70c38.66 0.001 70 31.34 70 70z" transform="matrix(.93942 0 0 .93942 -50.555 20.84)" fill="url(#b)"/>
  <path d="m247.14 143.57c0 38.66-31.34 70-70 70s-70-31.34-70-70 31.34-70 70-70c38.66 0.001 70 31.34 70 70z" transform="matrix(.93942 0 0 .93942 -50.555 20.84)" fill="url(#a)"/>
  <path d="m247.14 143.57c0 38.66-31.34 70-70 70s-70-31.34-70-70 31.34-70 70-70c38.66 0.001 70 31.34 70 70z" transform="matrix(.93942 0 0 .93942 -52.555 208.84)" fill="url(#b)"/>
  <path d="m247.14 143.57c0 38.66-31.34 70-70 70s-70-31.34-70-70 31.34-70 70-70c38.66 0.001 70 31.34 70 70z" transform="matrix(.93942 0 0 .93942 -52.555 208.84)" fill="url(#a)"/>
  <path d="m247.14 143.57c0 38.66-31.34 70-70 70s-70-31.34-70-70 31.34-70 70-70c38.66 0.001 70 31.34 70 70z" transform="matrix(.93942 0 0 .93942 33.445 160.84)" fill="url(#b)"/>
  <path d="m247.14 143.57c0 38.66-31.34 70-70 70s-70-31.34-70-70 31.34-70 70-70c38.66 0.001 70 31.34 70 70z" transform="matrix(.93942 0 0 .93942 33.445 160.84)" fill="url(#a)"/>
  <path d="m247.14 143.57c0 38.66-31.34 70-70 70s-70-31.34-70-70 31.34-70 70-70c38.66 0.001 70 31.34 70 70z" transform="matrix(.93942 0 0 .93942 125.44 72.84)" fill="url(#b)"/>
  <path d="m247.14 143.57c0 38.66-31.34 70-70 70s-70-31.34-70-70 31.34-70 70-70c38.66 0.001 70 31.34 70 70z" transform="matrix(.93942 0 0 .93942 125.44 72.84)" fill="url(#a)"/>
  <path d="m247.14 143.57c0 38.66-31.34 70-70 70s-70-31.34-70-70 31.34-70 70-70c38.66 0.001 70 31.34 70 70z" transform="matrix(.93942 0 0 .93942 61.445 50.84)" fill="url(#d)"/>
  <path d="m247.14 143.57c0 38.66-31.34 70-70 70s-70-31.34-70-70 31.34-70 70-70c38.66 0.001 70 31.34 70 70z" transform="matrix(.93942 0 0 .93942 61.445 50.84)" fill="url(#c)"/>
 </g>
</svg>
